Coordinates
version=1
nRows=10
nColumns=34
inDegrees=yes

Units are S.I. units (second, meters, Newtons, ...)
If the header above contains a line with 'inDegrees', this indicates whether rotational values are in degrees (yes) or radians (no).

endheader
time	pelvis_tilt	pelvis_list	pelvis_rotation	pelvis_tx	pelvis_ty	pelvis_tz	hip_flexion_r	hip_adduction_r	hip_rotation_r	knee_angle_r	ankle_angle_r	subtalar_angle_r	mtp_angle_r	hip_flexion_l	hip_adduction_l	hip_rotation_l	knee_angle_l	ankle_angle_l	subtalar_angle_l	mtp_angle_l	lumbar_extension	lumbar_bending	lumbar_rotation	arm_flex_r	arm_add_r	arm_rot_r	elbow_flex_r	pro_sup_r	arm_flex_l	arm_add_l	arm_rot_l	elbow_flex_l	pro_sup_l
      3.05000000	    -10.07217671	     -0.43530175	     -3.15553576	      0.01875696	      1.07797899	     -0.06621263	     29.28962798	      7.03715292	      5.14664027	     52.68515858	     29.94369180	    -21.09014016	      0.00000000	     33.80491023	     -7.28449424	     -6.18677095	     59.43218812	     28.37359348	     -4.25476248	      0.00000000	    -36.95508386	      0.05975866	      0.77705709	     19.20205623	     -4.23045079	      3.43687307	     26.77521435	     78.04773983	     24.45265960	     -7.25813412	     12.64453608	     22.64546856	     85.82390539
      3.06666670	    -10.18525436	     -0.29771360	     -3.37598278	      0.01753543	      1.07496992	     -0.06557340	     29.75157151	      7.08316727	      5.30196836	     53.11770921	     30.03872150	    -21.18905515	      0.00000000	     34.46928098	     -7.36488585	     -6.18472406	     60.89946334	     28.23936962	     -4.50587595	      0.00000000	    -37.44573221	      0.07699352	      0.63658912	     22.28135646	     -4.30047977	      3.37431584	     27.64161044	     78.15542942	     27.73114273	     -7.21230933	     12.56083547	     23.33465826	     85.83533793
      3.08333330	    -10.10895291	     -0.46288201	     -3.42779979	      0.02063224	      1.07559083	     -0.06448694	     29.35294830	      7.29487201	      5.20414234	     52.96619088	     29.46483885	    -21.91533457	      0.00000000	     34.80652628	     -7.31991481	     -5.46992478	     61.57468378	     27.72014614	     -5.75532139	      0.00000000	    -38.09004733	      0.37989657	      1.01674861	     25.59764890	     -4.94358913	      3.59534536	     29.30118060	     79.21617893	     32.19950372	     -6.64531272	     12.67161508	     22.96302029	     85.92876280
      3.10000000	    -10.60829335	     -0.27732303	     -3.65593547	      0.02161845	      1.07139024	     -0.06401565	     30.08582915	      7.19454266	      5.27158010	     53.25733262	     29.39963478	    -21.94618878	      0.00000000	     35.56141420	     -7.15231841	     -5.07628120	     62.26272315	     27.96880042	     -5.69118782	      0.00000000	    -37.50783293	      0.43414191	      0.95742490	     29.80514177	     -5.21041933	      3.45633112	     30.65057145	     79.29741100	     36.75183461	     -6.66674455	     12.40007720	     24.26573289	     85.87701883
      3.11666670	    -11.59643644	     -0.32542577	     -4.10272703	      0.02721365	      1.06614982	     -0.06125828	     31.16758464	      7.42954881	      5.12970480	     53.86881451	     28.73215580	    -22.93300269	      0.00000000	     37.08284014	     -7.36572630	     -4.58243848	     63.46054587	     28.38705428	     -5.39749518	      0.00000000	    -35.92695679	      0.53030826	      1.38884727	     33.13793400	     -6.12864808	      3.41576019	     35.75491831	     79.93582512	     40.72150319	     -6.57649825	      9.86526456	     27.13310709	     84.99591929
      3.13333330	    -12.30712974	     -0.04943049	     -4.33217329	      0.03520045	      1.05967713	     -0.05782438	     31.79477964	      7.26081372	      4.99495435	     54.61845131	     28.49864904	    -23.55416810	      0.00000000	     37.96273281	     -7.46116751	     -4.30401185	     64.72444850	     28.31900561	     -5.57820632	      0.00000000	    -33.90282662	      0.39150726	      1.17220867	     36.09960453	     -6.79072382	      2.02754071	     42.05370996	     80.03568262	     43.40168018	     -7.14274108	      6.14316934	     32.16767275	     83.79286680
      3.15000000	    -12.50123328	      0.15561492	     -4.27919637	      0.04872903	      1.06495448	     -0.05396051	     30.82749363	      7.23549587	      5.08425822	     54.02119611	     29.33702239	    -22.88501950	      0.00000000	     37.44051403	     -7.37283945	     -3.60593464	     64.79980622	     27.81570969	     -5.15313898	      0.00000000	    -32.12715506	      0.26490069	      0.78920741	     38.20947851	     -7.58293552	     -0.05153635	     48.87439076	     79.82207680	     45.14829989	     -7.93500955	      3.13972543	     38.14312338	     82.76929111
      3.16666670	    -12.89543304	      0.40487186	     -4.19606186	      0.05910378	      1.06233035	     -0.05068602	     30.02370708	      7.31587804	      5.24842154	     53.48612685	     30.56723583	    -21.87187383	      0.00000000	     37.36715456	     -7.39915104	     -3.15594021	     65.45845466	     26.94172332	     -5.29232634	      0.00000000	    -29.43599427	      0.12618217	      0.66085429	     39.56602683	     -9.04683623	     -2.04234444	     57.04260462	     79.56677666	     45.22794438	     -9.53506802	      2.32810240	     46.20761085	     82.13938133
      3.18333330	    -13.19084324	      0.57348277	     -4.09924168	      0.07072281	      1.06041738	     -0.05351423	     28.73140793	      7.00521918	      5.31590277	     52.32330593	     31.27321659	    -20.66790164	      0.00000000	     37.18477518	     -6.98051445	     -2.39715470	     65.88578663	     26.95412552	     -4.92267212	      0.00000000	    -26.53065124	      0.33914578	      1.18687549	     40.97652659	    -12.51041267	     -1.47944088	     65.16045305	     79.79726045	     44.09115647	    -11.65297982	      3.61356222	     56.19763980	     82.12068971
      3.20000000	    -13.90799895	      0.88057894	     -4.10359481	      0.07527480	      1.05560313	     -0.05052039	     28.49045936	      6.68892830	      5.58598983	     51.89460700	     31.86479084	    -19.68483630	      0.00000000	     38.14737253	     -6.51576743	     -1.80217538	     66.60776104	     26.75578094	     -4.52010785	      0.00000000	    -23.00411909	      0.31535926	      2.17182196	     43.16565446	    -17.18184909	     -0.00053488	     72.27759233	     80.36460066	     43.50480020	    -14.49176402	      5.37651054	     67.41788960	     82.32648718
